HIERARCHY
ROOT mixamorig:Hips
{
	OFFSET -0.000008 104.274872 1.554316
	CHANNELS 6 Xposition Yposition Zposition Xrotation Yrotation Zrotation
	JOINT mixamorig:Spine
	{
		OFFSET -0.000005 10.181595 0.131519
		CHANNELS 6 Xposition Yposition Zposition Xrotation Yrotation Zrotation
		JOINT mixamorig:Spine1
		{
			OFFSET -0.000000 9.893959 -1.470707
			CHANNELS 6 Xposition Yposition Zposition Xrotation Yrotation Zrotation
			JOINT mixamorig:Spine2
			{
				OFFSET -0.000000 9.220757 -1.370641
				CHANNELS 6 Xposition Yposition Zposition Xrotation Yrotation Zrotation
				JOINT mixamorig:Neck
				{
					OFFSET 0.000001 16.740417 -2.049036
					CHANNELS 6 Xposition Yposition Zposition Xrotation Yrotation Zrotation
					JOINT mixamorig:Head
					{
						OFFSET 0.000000 9.617874 1.685006
						CHANNELS 6 Xposition Yposition Zposition Xrotation Yrotation Zrotation
						JOINT mixamorig:HeadTop_End
						{
							OFFSET 0.000002 22.037354 7.501101
							CHANNELS 6 Xposition Yposition Zposition Xrotation Yrotation Zrotation
							End Site
							{
								OFFSET 0.000168 2310.654297 -282.823242
							}
						}
					}
				}
				JOINT mixamorig:RightShoulder
				{
					OFFSET -4.569970 11.014908 -2.160885
					CHANNELS 6 Xposition Yposition Zposition Xrotation Yrotation Zrotation
					JOINT mixamorig:RightArm
					{
						OFFSET -10.592851 -0.524811 -2.232101
						CHANNELS 6 Xposition Yposition Zposition Xrotation Yrotation Zrotation
						JOINT mixamorig:RightForeArm
						{
							OFFSET -27.841511 0.000031 -0.000004
							CHANNELS 6 Xposition Yposition Zposition Xrotation Yrotation Zrotation
							JOINT mixamorig:RightHand
							{
								OFFSET -28.328831 -0.000015 0.000015
								CHANNELS 6 Xposition Yposition Zposition Xrotation Yrotation Zrotation
								JOINT mixamorig:RightHandThumb1
								{
									OFFSET -2.464806 -1.573990 2.681852
									CHANNELS 6 Xposition Yposition Zposition Xrotation Yrotation Zrotation
									JOINT mixamorig:RightHandThumb2
									{
										OFFSET -3.215179 -1.872803 1.924282
										CHANNELS 6 Xposition Yposition Zposition Xrotation Yrotation Zrotation
										JOINT mixamorig:RightHandThumb3
										{
											OFFSET -2.654831 -1.527969 1.512609
											CHANNELS 6 Xposition Yposition Zposition Xrotation Yrotation Zrotation
											JOINT mixamorig:RightHandThumb4
											{
												OFFSET -2.018814 -1.152008 1.108052
												CHANNELS 6 Xposition Yposition Zposition Xrotation Yrotation Zrotation
												End Site
												{
													OFFSET -188.809540 -114.533607 132.431396
												}
											}
										}
									}
								}
								JOINT mixamorig:RightHandIndex1
								{
									OFFSET -9.108284 -0.517868 2.259835
									CHANNELS 6 Xposition Yposition Zposition Xrotation Yrotation Zrotation
									JOINT mixamorig:RightHandIndex2
									{
										OFFSET -3.699989 0.000000 0.001215
										CHANNELS 6 Xposition Yposition Zposition Xrotation Yrotation Zrotation
										JOINT mixamorig:RightHandIndex3
										{
											OFFSET -2.850006 0.000031 -0.000522
											CHANNELS 6 Xposition Yposition Zposition Xrotation Yrotation Zrotation
											JOINT mixamorig:RightHandIndex4
											{
												OFFSET -2.772186 -0.000015 -0.000020
												CHANNELS 6 Xposition Yposition Zposition Xrotation Yrotation Zrotation
												End Site
												{
													OFFSET -277.218445 0.000000 -0.050231
												}
											}
										}
									}
								}
								JOINT mixamorig:RightHandMiddle1
								{
									OFFSET -9.532516 -0.000031 -0.000023
									CHANNELS 6 Xposition Yposition Zposition Xrotation Yrotation Zrotation
									JOINT mixamorig:RightHandMiddle2
									{
										OFFSET -3.700005 -0.000015 0.003713
										CHANNELS 6 Xposition Yposition Zposition Xrotation Yrotation Zrotation
										JOINT mixamorig:RightHandMiddle3
										{
											OFFSET -2.949974 0.000015 -0.002054
											CHANNELS 6 Xposition Yposition Zposition Xrotation Yrotation Zrotation
											JOINT mixamorig:RightHandMiddle4
											{
												OFFSET -2.946640 0.000000 -0.000156
												CHANNELS 6 Xposition Yposition Zposition Xrotation Yrotation Zrotation
												End Site
												{
													OFFSET -294.664337 0.000000 -0.113670
												}
											}
										}
									}
								}
								JOINT mixamorig:RightHandRing1
								{
									OFFSET -9.103600 -0.043076 -1.865134
									CHANNELS 6 Xposition Yposition Zposition Xrotation Yrotation Zrotation
									JOINT mixamorig:RightHandRing2
									{
										OFFSET -3.379288 0.000000 -0.001055
										CHANNELS 6 Xposition Yposition Zposition Xrotation Yrotation Zrotation
										JOINT mixamorig:RightHandRing3
										{
											OFFSET -2.889687 -0.000015 0.000379
											CHANNELS 6 Xposition Yposition Zposition Xrotation Yrotation Zrotation
											JOINT mixamorig:RightHandRing4
											{
												OFFSET -2.638809 -0.000015 0.000941
												CHANNELS 6 Xposition Yposition Zposition Xrotation Yrotation Zrotation
												End Site
												{
													OFFSET -263.880371 0.000000 0.516020
												}
											}
										}
									}
								}
								JOINT mixamorig:RightHandPinky1
								{
									OFFSET -8.076683 -0.486710 -3.806280
									CHANNELS 6 Xposition Yposition Zposition Xrotation Yrotation Zrotation
									JOINT mixamorig:RightHandPinky2
									{
										OFFSET -3.600014 -0.000015 -0.003747
										CHANNELS 6 Xposition Yposition Zposition Xrotation Yrotation Zrotation
										JOINT mixamorig:RightHandPinky3
										{
											OFFSET -2.099983 0.000000 -0.005739
											CHANNELS 6 Xposition Yposition Zposition Xrotation Yrotation Zrotation
											JOINT mixamorig:RightHandPinky4
											{
												OFFSET -2.115768 -0.000031 -0.003680
												CHANNELS 6 Xposition Yposition Zposition Xrotation Yrotation Zrotation
												End Site
												{
													OFFSET -211.577087 0.000000 -0.350686
												}
											}
										}
									}
								}
							}
						}
					}
				}
				JOINT mixamorig:LeftShoulder
				{
					OFFSET 4.570447 11.014725 -2.160855
					CHANNELS 6 Xposition Yposition Zposition Xrotation Yrotation Zrotation
					JOINT mixamorig:LeftArm
					{
						OFFSET 10.592371 -0.524597 -2.232119
						CHANNELS 6 Xposition Yposition Zposition Xrotation Yrotation Zrotation
						JOINT mixamorig:LeftForeArm
						{
							OFFSET 27.841532 -0.000031 0.000026
							CHANNELS 6 Xposition Yposition Zposition Xrotation Yrotation Zrotation
							JOINT mixamorig:LeftHand
							{
								OFFSET 28.328846 -0.000061 0.000022
								CHANNELS 6 Xposition Yposition Zposition Xrotation Yrotation Zrotation
								JOINT mixamorig:LeftHandThumb1
								{
									OFFSET 2.466141 -1.576172 2.681732
									CHANNELS 6 Xposition Yposition Zposition Xrotation Yrotation Zrotation
									JOINT mixamorig:LeftHandThumb2
									{
										OFFSET 3.217812 -1.872070 1.916482
										CHANNELS 6 Xposition Yposition Zposition Xrotation Yrotation Zrotation
										JOINT mixamorig:LeftHandThumb3
										{
											OFFSET 2.656029 -1.528778 1.514513
											CHANNELS 6 Xposition Yposition Zposition Xrotation Yrotation Zrotation
											JOINT mixamorig:LeftHandThumb4
											{
												OFFSET 2.020889 -1.154053 1.115139
												CHANNELS 6 Xposition Yposition Zposition Xrotation Yrotation Zrotation
												End Site
												{
													OFFSET 190.885437 -115.081749 130.048782
												}
											}
										}
									}
								}
								JOINT mixamorig:LeftHandIndex1
								{
									OFFSET 9.109314 -0.518021 2.259871
									CHANNELS 6 Xposition Yposition Zposition Xrotation Yrotation Zrotation
									JOINT mixamorig:LeftHandIndex2
									{
										OFFSET 3.699989 0.000000 -0.000322
										CHANNELS 6 Xposition Yposition Zposition Xrotation Yrotation Zrotation
										JOINT mixamorig:LeftHandIndex3
										{
											OFFSET 2.850006 0.000000 0.000352
											CHANNELS 6 Xposition Yposition Zposition Xrotation Yrotation Zrotation
											JOINT mixamorig:LeftHandIndex4
											{
												OFFSET 2.774864 -0.000031 -0.000027
												CHANNELS 6 Xposition Yposition Zposition Xrotation Yrotation Zrotation
												End Site
												{
													OFFSET 277.486267 0.000000 -0.009857
												}
											}
										}
									}
								}
								JOINT mixamorig:LeftHandMiddle1
								{
									OFFSET 9.533394 0.000061 0.000044
									CHANNELS 6 Xposition Yposition Zposition Xrotation Yrotation Zrotation
									JOINT mixamorig:LeftHandMiddle2
									{
										OFFSET 3.699989 -0.000015 -0.000231
										CHANNELS 6 Xposition Yposition Zposition Xrotation Yrotation Zrotation
										JOINT mixamorig:LeftHandMiddle3
										{
											OFFSET 2.949997 -0.000015 -0.000059
											CHANNELS 6 Xposition Yposition Zposition Xrotation Yrotation Zrotation
											JOINT mixamorig:LeftHandMiddle4
											{
												OFFSET 2.952896 0.000031 0.000063
												CHANNELS 6 Xposition Yposition Zposition Xrotation Yrotation Zrotation
												End Site
												{
													OFFSET 295.289337 0.000000 0.022810
												}
											}
										}
									}
								}
								JOINT mixamorig:LeftHandRing1
								{
									OFFSET 9.104523 -0.042999 -1.865074
									CHANNELS 6 Xposition Yposition Zposition Xrotation Yrotation Zrotation
									JOINT mixamorig:LeftHandRing2
									{
										OFFSET 3.150009 -0.000031 0.000043
										CHANNELS 6 Xposition Yposition Zposition Xrotation Yrotation Zrotation
										JOINT mixamorig:LeftHandRing3
										{
											OFFSET 2.949982 -0.000015 0.000040
											CHANNELS 6 Xposition Yposition Zposition Xrotation Yrotation Zrotation
											JOINT mixamorig:LeftHandRing4
											{
												OFFSET 2.644348 0.000000 0.000057
												CHANNELS 6 Xposition Yposition Zposition Xrotation Yrotation Zrotation
												End Site
												{
													OFFSET 264.434631 0.000000 0.012105
												}
											}
										}
									}
								}
								JOINT mixamorig:LeftHandPinky1
								{
									OFFSET 8.077789 -0.486847 -3.806259
									CHANNELS 6 Xposition Yposition Zposition Xrotation Yrotation Zrotation
									JOINT mixamorig:LeftHandPinky2
									{
										OFFSET 3.599953 0.000031 0.014727
										CHANNELS 6 Xposition Yposition Zposition Xrotation Yrotation Zrotation
										JOINT mixamorig:LeftHandPinky3
										{
											OFFSET 2.100021 0.000015 0.007705
											CHANNELS 6 Xposition Yposition Zposition Xrotation Yrotation Zrotation
											JOINT mixamorig:LeftHandPinky4
											{
												OFFSET 2.125504 0.000031 0.007517
												CHANNELS 6 Xposition Yposition Zposition Xrotation Yrotation Zrotation
												End Site
												{
													OFFSET 212.550781 0.000000 0.625752
												}
											}
										}
									}
								}
							}
						}
					}
				}
			}
		}
	}
	JOINT mixamorig:RightUpLeg
	{
		OFFSET -8.207787 -6.751648 -1.599560
		CHANNELS 6 Xposition Yposition Zposition Xrotation Yrotation Zrotation
		JOINT mixamorig:RightLeg
		{
			OFFSET -0.000002 -44.370117 0.345942
			CHANNELS 6 Xposition Yposition Zposition Xrotation Yrotation Zrotation
			JOINT mixamorig:RightFoot
			{
				OFFSET 0.000003 -44.423679 -3.043532
				CHANNELS 6 Xposition Yposition Zposition Xrotation Yrotation Zrotation
				JOINT mixamorig:RightToeBase
				{
					OFFSET -0.000002 -8.728671 10.710558
					CHANNELS 6 Xposition Yposition Zposition Xrotation Yrotation Zrotation
					JOINT mixamorig:RightToe_End
					{
						OFFSET -0.000001 -0.000679 9.278119
						CHANNELS 6 Xposition Yposition Zposition Xrotation Yrotation Zrotation
						End Site
						{
							OFFSET 0.000000 -0.067690 927.812134
						}
					}
				}
			}
		}
	}
	JOINT mixamorig:LeftUpLeg
	{
		OFFSET 8.207793 -6.751686 -1.599556
		CHANNELS 6 Xposition Yposition Zposition Xrotation Yrotation Zrotation
		JOINT mixamorig:LeftLeg
		{
			OFFSET -0.000004 -44.370014 0.346954
			CHANNELS 6 Xposition Yposition Zposition Xrotation Yrotation Zrotation
			JOINT mixamorig:LeftFoot
			{
				OFFSET -0.000001 -44.423672 -3.044401
				CHANNELS 6 Xposition Yposition Zposition Xrotation Yrotation Zrotation
				JOINT mixamorig:LeftToeBase
				{
					OFFSET -0.000002 -8.728669 10.710558
					CHANNELS 6 Xposition Yposition Zposition Xrotation Yrotation Zrotation
					JOINT mixamorig:LeftToe_End
					{
						OFFSET -0.000003 -0.000679 9.278133
						CHANNELS 6 Xposition Yposition Zposition Xrotation Yrotation Zrotation
						End Site
						{
							OFFSET 0.000000 -0.068021 927.813477
						}
					}
				}
			}
		}
	}
}
MOTION
Frames: 3
Frame Time: 0.033333
0.000006 104.270477 1.554256 0.000010 0.000003 -0.000113 -0.000005 10.181587 0.131522 0.000001 -0.000003 0.000084 -0.000000 9.893967 -1.470711 0.000001 0.000000 -0.000000 -0.000000 9.220802 -1.370642 0.000000 -0.000000 -0.000000 0.000001 16.740433 -2.049030 0.000000 -0.000000 -0.000000 0.000000 9.617859 1.685014 0.000000 0.000000 0.000000 0.000002 22.037384 7.501101 0.000000 -0.000000 0.000000 -4.569968 11.014880 -2.160881 0.000008 0.000001 -0.000038 -10.592864 -0.524786 -2.231871 69.416941 38.469770 -27.173418 -27.841536 0.000010 0.000544 -55.099669 113.107625 76.601384 -28.328823 0.000022 0.000027 -0.000323 -0.000041 0.000005 -2.464456 -1.573678 2.682278 -53.956292 183.909646 -29.869011 -3.215295 -1.872606 1.924656 154.259180 30.409433 -3.390327 -2.654951 -1.527886 1.513089 143.603443 27.419745 -39.736070 -2.018827 -1.151998 1.108074 -0.000003 0.000001 0.000005 -9.108361 -0.517563 2.260134 97.528271 16.502314 -18.840846 -3.700086 0.000316 0.001504 92.802668 13.929184 -14.595525 -2.850094 0.000370 -0.000276 90.756678 11.571339 -11.723161 -2.772163 0.000001 -0.000020 0.000003 -0.000000 -0.000000 -9.532577 0.000268 0.000221 89.018819 17.016942 -16.873467 -3.700079 0.000312 0.003936 87.771742 12.406601 -11.845273 -2.950058 0.000343 -0.001828 89.784817 11.689041 -11.638443 -2.946640 0.000003 -0.000155 0.000003 -0.000001 0.000000 -9.103696 -0.042757 -1.864885 87.037866 18.828163 -17.851668 -3.379314 0.000323 -0.000848 86.882342 8.821099 -8.371684 -2.889722 0.000343 0.000614 92.595468 6.353408 -6.694541 -2.638793 -0.000002 0.000943 0.000001 -0.000001 -0.000000 -8.076743 -0.486399 -3.806046 79.067492 20.070721 -16.489526 -3.600041 0.000268 -0.003556 81.001515 8.142058 -6.654347 -2.099989 0.000301 -0.005530 83.624158 4.014782 -3.399696 -2.115767 -0.000043 -0.003681 0.000001 -0.000002 -0.000004 4.570446 11.014691 -2.160851 -0.000018 0.000010 -0.000021 10.592537 -0.524544 -2.232389 72.855217 -66.908198 51.990334 27.841728 -0.000084 -0.000088 236.708293 -71.709261 253.501952 28.328833 -0.000013 0.000030 0.000022 -0.000089 -0.000000 2.466185 -1.576133 2.681875 130.948482 179.886679 -166.729576 3.217839 -1.871954 1.916559 -68.390916 19.130704 21.658024 2.656067 -1.528773 1.514631 -71.701325 19.329488 23.462449 2.020891 -1.154083 1.115147 0.000001 0.000000 0.000003 9.109258 -0.517694 2.260079 -133.954790 -8.432069 -19.664898 3.699905 0.000305 -0.000113 222.760773 -11.173193 331.920365 2.849921 0.000355 0.000560 221.605952 -9.948632 334.195446 2.774879 -0.000031 -0.000037 -0.000001 0.000000 0.000000 9.533359 0.000367 0.000238 42.105992 -173.838314 164.095568 3.699923 0.000320 -0.000035 221.489689 -8.322003 338.258999 2.949931 0.000307 0.000143 221.757487 -8.685166 337.476423 2.952866 -0.000031 0.000062 0.000000 -0.000000 -0.000000 9.104506 -0.042697 -1.864875 -136.026141 -3.815753 -9.436193 3.149976 0.000362 0.000254 46.243410 -177.080932 173.166824 2.949947 0.000323 0.000276 -130.501037 -4.793773 -10.379171 2.644318 0.000015 0.000048 -0.000001 0.000000 -0.000000 8.077777 -0.486538 -3.806042 47.309445 -177.535823 173.379380 3.599994 0.000287 0.014942 -130.089368 5.349893 10.467646 2.100054 0.000292 0.007902 52.802833 -187.138536 193.402557 2.125499 -0.000012 0.007516 0.000003 -0.000002 -0.000001 -8.207786 -6.751667 -1.599560 -0.077001 -0.000003 0.000080 -0.000002 -44.370110 0.345938 0.153719 -0.000000 -0.000000 0.000000 -44.423679 -3.043532 -0.076700 0.000000 -0.000002 -0.000006 -8.728667 10.710559 -0.000009 -0.000000 -0.000000 -0.000001 -0.000679 9.278123 0.000000 -0.000000 -0.000000 8.207792 -6.751710 -1.599556 -0.074518 -0.000003 0.000081 -0.000002 -44.370014 0.346960 0.148822 0.000002 0.000000 -0.000001 -44.423664 -3.044403 -0.074314 0.000000 -0.000002 -0.000004 -8.728671 10.710558 0.000007 -0.000000 -0.000000 0.000000 -0.000680 9.278137 -0.000000 0.000000 -0.000001 
0.000006 104.270477 1.554256 0.000010 0.000003 -0.000113 -0.000005 10.181587 0.131522 0.000001 -0.000003 0.000084 -0.000000 9.893967 -1.470711 0.000001 0.000000 -0.000000 -0.000000 9.220802 -1.370642 0.000000 -0.000000 -0.000000 0.000001 16.740433 -2.049030 0.000000 -0.000000 -0.000000 0.000000 9.617859 1.685014 0.000000 0.000000 0.000000 0.000002 22.037384 7.501101 0.000000 -0.000000 0.000000 -4.569968 11.014880 -2.160881 0.000008 0.000001 -0.000038 -10.592871 -0.524783 -2.231889 69.273192 34.455268 -24.180417 -27.841539 0.000003 0.000563 -55.300432 112.626357 76.331237 -28.328827 0.000021 0.000025 -0.000321 -0.000044 0.000006 -2.464457 -1.573686 2.682296 -53.441688 185.012121 -27.664834 -3.215274 -1.872573 1.924666 154.145540 30.530898 -2.574288 -2.654963 -1.527874 1.513088 143.884506 27.401916 -39.115353 -2.018826 -1.152000 1.108057 -0.000001 0.000002 0.000002 -9.108379 -0.517552 2.260119 97.499523 16.494538 -18.822685 -3.700078 0.000328 0.001504 93.055467 13.883841 -14.611713 -2.850092 0.000359 -0.000272 91.137707 11.495426 -11.723442 -2.772178 -0.000001 -0.000021 -0.000000 0.000001 -0.000000 -9.532588 0.000264 0.000229 89.251223 17.175619 -17.097989 -3.700095 0.000340 0.003952 87.796542 12.618284 -12.054014 -2.950055 0.000337 -0.001816 89.757039 11.794651 -11.737998 -2.946637 -0.000014 -0.000154 -0.000003 0.000000 -0.000001 -9.103702 -0.042763 -1.864882 87.355640 18.848766 -17.969169 -3.379319 0.000304 -0.000846 87.061669 9.048413 -8.613985 -2.889751 0.000354 0.000633 92.712093 6.439270 -6.798219 -2.638816 -0.000005 0.000939 -0.000001 0.000002 -0.000003 -8.076765 -0.486397 -3.806053 79.570645 19.770437 -16.383541 -3.600059 0.000273 -0.003556 81.301784 8.204100 -6.742774 -2.100021 0.000321 -0.005531 83.911183 4.162448 -3.549229 -2.115784 -0.000055 -0.003680 0.000005 0.000000 -0.000003 4.570446 11.014691 -2.160851 -0.000018 0.000010 -0.000021 10.592536 -0.524540 -2.232392 72.917665 -68.172917 53.128780 27.841732 -0.000086 -0.000085 237.173265 -71.343081 254.406132 28.328833 -0.000028 0.000039 0.000022 -0.000089 -0.000001 2.466157 -1.576148 2.681870 133.554309 173.062896 -167.532656 3.217830 -1.871982 1.916549 -70.205657 29.007117 24.216154 2.656045 -1.528776 1.514612 -76.505338 31.081534 28.409743 2.020890 -1.154074 1.115164 -0.000001 0.000003 0.000006 9.109268 -0.517686 2.260071 -140.260407 -5.593712 -15.373979 3.699909 0.000332 -0.000139 216.515822 -7.965315 336.135247 2.849932 0.000368 0.000536 214.934606 -7.021662 337.937188 2.774871 -0.000031 -0.000033 -0.000000 0.000000 0.000000 9.533378 0.000399 0.000239 37.656506 -175.992911 168.302828 3.699957 0.000362 -0.000041 217.211723 -4.983199 345.275625 2.949962 0.000335 0.000113 218.796163 -5.033179 345.764475 2.952866 -0.000016 0.000068 0.000002 0.000000 -0.000000 9.104510 -0.042692 -1.864882 -139.492762 -2.408638 -6.525566 3.150004 0.000336 0.000226 42.252363 -180.384968 180.992254 2.949976 0.000291 0.000247 -133.102150 -0.349928 -0.810112 2.644317 0.000031 0.000057 -0.000000 -0.000000 0.000000 8.077781 -0.486557 -3.806041 48.268865 -178.799026 176.309381 3.600002 0.000280 0.014959 -128.610563 6.224377 11.916874 2.100051 0.000266 0.007915 55.885472 -188.428486 194.943571 2.125504 -0.000013 0.007508 0.000002 -0.000000 0.000000 -8.207786 -6.751667 -1.599560 -0.077001 -0.000003 0.000080 -0.000002 -44.370110 0.345938 0.153719 -0.000000 -0.000000 0.000000 -44.423679 -3.043532 -0.076700 0.000000 -0.000002 -0.000006 -8.728667 10.710559 -0.000009 -0.000000 -0.000000 -0.000001 -0.000679 9.278123 0.000000 -0.000000 -0.000000 8.207792 -6.751710 -1.599556 -0.074518 -0.000003 0.000081 -0.000002 -44.370014 0.346960 0.148822 0.000002 0.000000 -0.000001 -44.423664 -3.044403 -0.074314 0.000000 -0.000002 -0.000004 -8.728671 10.710558 0.000007 -0.000000 -0.000000 0.000000 -0.000680 9.278137 -0.000000 0.000000 -0.000001 
0.000006 104.270477 1.554256 0.000010 0.000003 -0.000113 -0.000005 10.181587 0.131522 0.000001 -0.000003 0.000084 -0.000000 9.893967 -1.470711 0.000001 0.000000 -0.000000 -0.000000 9.220802 -1.370642 0.000000 -0.000000 -0.000000 0.000001 16.740433 -2.049030 0.000000 -0.000000 -0.000000 0.000000 9.617859 1.685014 0.000000 0.000000 0.000000 0.000002 22.037384 7.501101 0.000000 -0.000000 0.000000 -4.569968 11.014880 -2.160881 0.000008 0.000001 -0.000038 -10.592873 -0.524767 -2.231902 69.210696 33.756704 -23.648311 -27.841536 0.000000 0.000559 -55.206066 112.497676 76.084387 -28.328831 0.000023 0.000021 -0.000318 -0.000044 0.000008 -2.464458 -1.573677 2.682305 -53.569689 184.207251 -28.418334 -3.215288 -1.872606 1.924644 154.524656 30.682569 -1.821479 -2.654942 -1.527868 1.513081 144.511708 27.242612 -39.449387 -2.018831 -1.151998 1.108065 0.000000 -0.000006 0.000004 -9.108378 -0.517551 2.260119 97.670674 16.788555 -19.212716 -3.700078 0.000315 0.001514 93.395863 14.352748 -15.194449 -2.850097 0.000354 -0.000276 91.644084 11.907672 -12.250799 -2.772157 -0.000000 -0.000021 -0.000001 0.000001 0.000001 -9.532583 0.000260 0.000227 89.539436 17.440828 -17.446453 -3.700084 0.000328 0.003944 87.866074 12.912705 -12.352169 -2.950071 0.000333 -0.001822 90.013226 11.995867 -11.991482 -2.946625 0.000003 -0.000157 0.000001 -0.000000 0.000000 -9.103707 -0.042766 -1.864877 87.626150 19.074540 -18.269887 -3.379310 0.000326 -0.000837 87.224897 9.194346 -8.777653 -2.889741 0.000350 0.000610 93.177782 6.521822 -6.940936 -2.638798 -0.000017 0.000941 -0.000005 0.000002 0.000001 -8.076753 -0.486396 -3.806027 79.727897 19.961277 -16.589280 -3.600043 0.000274 -0.003547 81.783647 8.249459 -6.839415 -2.100026 0.000315 -0.005523 84.625757 4.166110 -3.597308 -2.115758 -0.000027 -0.003680 -0.000004 -0.000001 -0.000001 4.570446 11.014691 -2.160851 -0.000018 0.000010 -0.000021 10.592533 -0.524532 -2.232397 72.296664 -65.862216 50.642284 27.841719 -0.000091 -0.000092 237.430271 -70.836527 255.217641 28.328840 0.000002 0.000041 0.000021 -0.000089 -0.000000 2.466150 -1.576172 2.681846 133.252100 159.017186 -167.676773 3.217816 -1.872012 1.916525 -78.766923 44.343289 32.351201 2.656028 -1.528801 1.514607 -81.749141 42.847402 34.549720 2.020880 -1.154055 1.115150 0.000003 0.000007 0.000004 9.109268 -0.517673 2.260041 -146.382101 -4.224059 -13.892085 3.699922 0.000359 -0.000161 208.773106 -5.330885 339.383466 2.849939 0.000376 0.000504 204.585121 -4.350289 340.228388 2.774872 -0.000015 -0.000039 -0.000004 0.000001 -0.000000 9.533364 0.000417 0.000229 31.607004 -177.102215 169.809417 3.699996 0.000348 -0.000071 209.345161 -0.816407 356.890990 2.950009 0.000357 0.000105 209.574506 -0.328335 358.747025 2.952873 -0.000046 0.000064 -0.000001 -0.000001 0.000000 9.104524 -0.042685 -1.864902 -143.441568 -0.730123 -2.214835 3.150044 0.000282 0.000197 35.762228 -186.050788 198.601424 2.950035 0.000272 0.000197 -142.089409 5.692900 16.469680 2.644325 0.000032 0.000065 -0.000001 -0.000001 -0.000000 8.077770 -0.486563 -3.806051 48.144914 -180.129273 179.242633 3.600013 0.000268 0.014928 -131.227099 10.104453 20.976435 2.100078 0.000231 0.007901 50.564522 -193.024315 206.139317 2.125504 -0.000002 0.007534 -0.000001 0.000003 -0.000000 -8.207786 -6.751667 -1.599560 -0.077001 -0.000003 0.000080 -0.000002 -44.370110 0.345938 0.153719 -0.000000 -0.000000 0.000000 -44.423679 -3.043532 -0.076700 0.000000 -0.000002 -0.000006 -8.728667 10.710559 -0.000009 -0.000000 -0.000000 -0.000001 -0.000679 9.278123 0.000000 -0.000000 -0.000000 8.207792 -6.751710 -1.599556 -0.074518 -0.000003 0.000081 -0.000002 -44.370014 0.346960 0.148822 0.000002 0.000000 -0.000001 -44.423664 -3.044403 -0.074314 0.000000 -0.000002 -0.000004 -8.728671 10.710558 0.000007 -0.000000 -0.000000 0.000000 -0.000680 9.278137 -0.000000 0.000000 -0.000001 
